# xmcd
#
# Track frame offsets: 
#        150
#        24575
#        53782
#        104299
#        130972
#        167019
#        188821
#        207709
#        241054
#        262161
#
# Disc length: 3760 seconds
#
# Revision: 0
# Processed by: cddbd v1.5.2PL0 Copyright (c) Steve Scherf et al.
# Submitted via: ExactAudioCopy v1.0b4
#
DISCID=8e0eae0a
DTITLE=Fillmore Slim - The Blues Playa's Ball - CD1
DYEAR=2011
DGENRE=Blues
TTITLE0=Funky Wino
TTITLE1=San Francisco Down On Sixth Street
TTITLE2=Hooker's Game
TTITLE3=The Last Stage Of The Blues
TTITLE4=She's Nasty
TTITLE5=Rebecca
TTITLE6=I'd Rather Go Blind
TTITLE7=Bring Back The Funk
TTITLE8=Playing The Blues All Around The World
TTITLE9=Thunder And Lightning
EXTD=
EXTT0=
EXTT1=
EXTT2=
EXTT3=
EXTT4=
EXTT5=
EXTT6=
EXTT7=
EXTT8=
EXTT9=
PLAYORDER=
